<?xml version="1.0" encoding="UTF-8"?>
<svg id="Layer_1" xmlns="http://www.w3.org/2000/svg" version="1.1" viewBox="0 0 386.93 83.58">
  <!-- Generator: Adobe Illustrator 30.6.0, SVG Export Plug-In . SVG Version: 2.1.4 Build 109)  -->
  <defs>
    <style>
      .st0 {
        fill: #fff;
      }
    </style>
  </defs>
  <path class="st0" d="M176.21,35.22h-6.13c-1.09-.76-2.75-2.75-4.99-5.98-.72-1.03-1.46-2.02-2.23-2.96-.77-.95-1.3-1.52-1.59-1.73-.29-.21-.75-.31-1.36-.31h-.91v5.06c0,1.79.04,2.96.13,3.52.08.55.31.97.67,1.23.36.27,1.06.4,2.09.4h1.09v.77h-10.9v-.77h.74c.97,0,1.65-.12,2.02-.37.38-.25.61-.63.71-1.15.1-.52.15-1.73.15-3.64v-11.17c0-1.81-.05-2.98-.15-3.51-.1-.53-.32-.89-.67-1.09s-1.1-.3-2.25-.3h-.39v-.77l3.26-.17c2.17-.1,3.9-.15,5.17-.15,2.17,0,3.94.2,5.3.6,1.36.4,2.46,1.06,3.3,1.98.84.92,1.26,2.02,1.26,3.29,0,1.49-.55,2.76-1.65,3.81s-2.71,1.71-4.84,1.96c.95.46,2.48,2.12,4.6,4.97,1.72,2.32,3.08,3.84,4.06,4.55.99.72,2.15,1.1,3.49,1.14v.77ZM158.99,23.46c.84-.02,1.71-.06,2.6-.1.9-.04,1.67-.17,2.33-.37.66-.2,1.2-.5,1.6-.88.41-.39.73-.89.97-1.52.24-.63.35-1.4.35-2.32,0-1.6-.4-2.88-1.2-3.85-.8-.96-2.54-1.44-5.23-1.44-.41,0-.89.02-1.43.07v10.41Z"/>
  <path class="st0" d="M196.9,28.13h.81l-.49,7.09h-18.86v-.77h.47c1.13,0,1.86-.15,2.19-.45.33-.3.54-.69.63-1.15s.13-1.65.13-3.55v-11.17c0-1.74-.05-2.88-.14-3.43-.1-.55-.31-.93-.65-1.15-.34-.22-1.06-.33-2.16-.33v-.77h16.27l.54,5.68h-.79c-.36-1.59-.8-2.72-1.32-3.38-.52-.67-1.14-1.09-1.86-1.26-.72-.17-1.87-.26-3.46-.26h-3.16v9.56h2.42c1.11,0,1.88-.09,2.33-.28.44-.19.73-.48.87-.87.14-.39.21-1.14.21-2.26h.79v7.79h-.79c0-1.27-.11-2.11-.32-2.54-.21-.43-.52-.71-.93-.84s-1.1-.19-2.07-.19h-2.5v5.39c0,2.7.17,4.29.52,4.76.35.48,1.28.71,2.81.71h1.7c1.2,0,2.18-.15,2.96-.46.77-.31,1.51-.94,2.21-1.9.7-.96,1.25-2.28,1.65-3.95Z"/>
  <path class="st0" d="M201.05,34.98v-7.32h.84c.95,4.77,3.21,7.15,6.77,7.15,1.6,0,2.84-.46,3.72-1.37.88-.91,1.32-1.93,1.32-3.07s-.39-2.1-1.16-2.87c-.77-.76-2.18-1.58-4.23-2.45-1.83-.78-3.2-1.47-4.13-2.06-.93-.59-1.65-1.35-2.17-2.29-.52-.94-.78-1.94-.78-3.01,0-1.62.56-2.98,1.69-4.06,1.13-1.08,2.55-1.62,4.27-1.62.96,0,1.87.16,2.72.47s1.72.96,2.62,1.95c.51-.62.81-1.28.87-2h.74v5.96h-.74c-.43-1.73-1.18-3.1-2.26-4.1-1.08-1-2.33-1.49-3.75-1.49s-2.35.37-2.98,1.1c-.63.73-.95,1.54-.95,2.41,0,1.05.4,1.94,1.19,2.67.78.74,2.2,1.57,4.25,2.49,1.96.87,3.38,1.58,4.27,2.11.89.53,1.6,1.27,2.14,2.21.54.94.81,2.03.81,3.26,0,1.95-.65,3.53-1.95,4.75-1.3,1.22-3.03,1.83-5.21,1.83-2.5,0-4.58-.96-6.25-2.87-.37.53-.64,1.27-.82,2.22h-.84Z"/>
  <path class="st0" d="M217.98,13.22v-.77h10.41v.77h-.49c-1.12,0-1.85.09-2.2.28-.35.18-.58.53-.7,1.03-.12.5-.18,1.7-.18,3.59v11.17c0,1.79.04,2.96.13,3.52.08.55.31.97.67,1.23.36.27,1.06.4,2.09.4h.67v.77h-10.41v-.77h.67c.97,0,1.65-.12,2.02-.37.38-.25.61-.63.71-1.15.1-.52.15-1.73.15-3.64v-11.17c0-1.81-.05-2.98-.15-3.51-.1-.53-.33-.89-.67-1.09-.35-.2-1.1-.3-2.25-.3h-.49Z"/>
  <path class="st0" d="M230.84,12.63l3.75-.18c3.12-.16,5.23-.24,6.31-.24,3.38,0,6.02.51,7.91,1.55,1.89,1.03,3.3,2.43,4.22,4.19.92,1.76,1.39,3.8,1.39,6.1,0,1.67-.25,3.19-.76,4.58-.5,1.38-1.2,2.53-2.07,3.44-.88.91-1.9,1.61-3.06,2.08-1.16.48-2.26.77-3.3.89-1.04.12-2.51.18-4.4.18h-10.09v-.77h.94c.97,0,1.65-.12,2.02-.37.38-.25.62-.63.72-1.15.11-.52.16-1.73.16-3.64v-10.98c0-1.81-.05-2.99-.16-3.52-.11-.53-.33-.9-.67-1.09-.34-.2-1.09-.29-2.24-.29h-.67v-.77ZM237.86,13.1v15.22c0,2.25.04,3.7.13,4.35s.34,1.11.76,1.37c.42.26,1.31.39,2.66.39,1.98,0,3.61-.27,4.89-.81,1.28-.54,2.34-1.61,3.2-3.21.86-1.6,1.29-3.63,1.29-6.1,0-1.93-.25-3.65-.75-5.16-.5-1.51-1.21-2.74-2.14-3.69-.93-.95-1.96-1.59-3.09-1.93-1.13-.34-2.58-.51-4.35-.51-.85,0-1.71.03-2.59.08Z"/>
  <path class="st0" d="M274.88,28.13h.81l-.49,7.09h-18.86v-.77h.47c1.13,0,1.86-.15,2.19-.45.33-.3.54-.69.63-1.15.09-.46.13-1.65.13-3.55v-11.17c0-1.74-.05-2.88-.14-3.43s-.31-.93-.65-1.15c-.34-.22-1.06-.33-2.16-.33v-.77h16.27l.54,5.68h-.79c-.36-1.59-.8-2.72-1.32-3.38-.52-.67-1.14-1.09-1.86-1.26-.72-.17-1.87-.26-3.46-.26h-3.16v9.56h2.42c1.11,0,1.88-.09,2.33-.28.44-.19.73-.48.87-.87s.21-1.14.21-2.26h.79v7.79h-.79c0-1.27-.11-2.11-.32-2.54s-.52-.71-.93-.84-1.1-.19-2.07-.19h-2.5v5.39c0,2.7.17,4.29.52,4.76.35.48,1.28.71,2.81.71h1.7c1.2,0,2.18-.15,2.96-.46.77-.31,1.51-.94,2.21-1.9.7-.96,1.25-2.28,1.65-3.95Z"/>
  <path class="st0" d="M298.44,35.74l-16.11-21.35v15.8c0,1.31.06,2.17.19,2.59.13.42.5.8,1.1,1.14.6.35,1.51.52,2.72.52v.77h-8.5v-.77c1.09-.08,1.91-.28,2.49-.6.57-.32.91-.66,1.02-1.03.11-.37.16-1.24.16-2.62v-12.08c0-1.75-.08-2.92-.24-3.51-.16-.59-.42-.97-.77-1.14-.35-.17-1.14-.25-2.36-.25v-.77h6.72l13.49,17.82v-13.62c0-1.01-.1-1.71-.31-2.12-.21-.4-.63-.72-1.27-.96s-1.4-.35-2.3-.35v-.77h8.26v.77c-.96.08-1.72.26-2.28.55-.55.29-.91.64-1.06,1.05-.15.41-.23,1.1-.23,2.07v18.84h-.72Z"/>
  <path class="st0" d="M305.63,17.92h-.77l.12-5.48h22.1l.12,5.48h-.72c-.26-1.5-.61-2.58-1.06-3.25-.45-.67-.93-1.07-1.44-1.23-.51-.15-1.39-.23-2.64-.23h-3.66v16.07c0,1.78.04,2.95.13,3.51.08.56.31.97.68,1.24.37.27,1.06.4,2.08.4h1.11v.77h-11.35v-.77h1.18c.97,0,1.65-.12,2.02-.37.38-.25.62-.63.72-1.15.11-.52.16-1.73.16-3.64V13.22h-3.38c-1.47,0-2.45.07-2.96.21s-.98.56-1.42,1.27c-.44.71-.78,1.78-1.02,3.22Z"/>
  <path class="st0" d="M329.55,13.22v-.77h10.41v.77h-.49c-1.12,0-1.85.09-2.2.28-.35.18-.58.53-.7,1.03-.12.5-.18,1.7-.18,3.59v11.17c0,1.79.04,2.96.13,3.52.08.55.31.97.67,1.23.36.27,1.06.4,2.09.4h.67v.77h-10.41v-.77h.67c.97,0,1.65-.12,2.02-.37.38-.25.61-.63.71-1.15.1-.52.15-1.73.15-3.64v-11.17c0-1.81-.05-2.98-.15-3.51-.1-.53-.33-.89-.67-1.09-.35-.2-1.1-.3-2.25-.3h-.49Z"/>
  <path class="st0" d="M356.8,26.82h-8.65l-.59,1.44c-.87,2.09-1.31,3.46-1.31,4.1,0,.68.23,1.2.7,1.55.46.35,1.06.53,1.79.53v.77h-6.77v-.77c1.01-.16,1.76-.51,2.25-1.07.49-.55,1.09-1.72,1.78-3.5.06-.17.32-.82.81-1.95l6.62-15.8h.65l7.61,18.09,1.04,2.39c.24.54.55.96.95,1.27.4.31.99.5,1.79.58v.77h-8.95v-.77c1.1,0,1.84-.08,2.22-.24s.58-.48.58-.97c0-.25-.26-.98-.77-2.2l-1.75-4.22ZM356.52,26.07l-4.03-9.71-4.01,9.71h8.04Z"/>
  <path class="st0" d="M386.93,28.52l-.17,6.7h-19.35v-.77h.67c.97,0,1.65-.12,2.02-.37.38-.25.62-.63.72-1.15.11-.52.16-1.73.16-3.64v-11.17c0-1.81-.05-2.98-.16-3.51-.11-.53-.33-.89-.67-1.09-.34-.2-1.09-.3-2.24-.3h-.5v-.77h10.93v.77h-1.01c-1.12,0-1.85.09-2.2.28-.35.18-.58.53-.7,1.03-.12.5-.18,1.7-.18,3.59v11.92c0,1.65.05,2.68.13,3.09s.33.74.73.97c.4.23,1.25.34,2.56.34h1.73c1.4,0,2.44-.12,3.12-.37.68-.25,1.32-.78,1.93-1.61.61-.83,1.17-2.14,1.67-3.95h.79Z"/>
  <path class="st0" d="M159.11,52.92v4.79c0,1.79.04,2.96.13,3.52.08.55.31.97.68,1.23.37.27,1.06.4,2.08.4h.76v.77h-10.43v-.77h.6c.97,0,1.65-.12,2.02-.37.38-.25.61-.63.71-1.15.1-.52.15-1.73.15-3.64v-11.17c0-1.81-.05-2.98-.15-3.51-.1-.53-.32-.89-.67-1.09-.35-.2-1.1-.3-2.25-.3h-.42v-.77l2.85-.1c2.28-.08,4.06-.12,5.34-.12,2.35,0,4.16.18,5.43.55,1.27.37,2.31,1.02,3.12,1.96.81.94,1.22,2.13,1.22,3.56,0,1.24-.28,2.34-.83,3.29-.55.95-1.35,1.67-2.38,2.17-1.04.49-2.86.74-5.47.74h-2.5ZM159.11,52.08h1.63c1.31,0,2.37-.13,3.17-.39.81-.26,1.48-.81,2.02-1.65.54-.84.81-1.88.81-3.11,0-1.88-.46-3.26-1.39-4.14-.92-.88-2.42-1.32-4.49-1.32-.76,0-1.34.02-1.75.07v10.55Z"/>
  <path class="st0" d="M195.44,63.63h-6.13c-1.09-.76-2.75-2.75-4.99-5.98-.72-1.03-1.46-2.02-2.23-2.96-.77-.95-1.3-1.52-1.59-1.73-.29-.21-.75-.31-1.36-.31h-.91v5.06c0,1.79.04,2.96.13,3.52.08.55.31.97.67,1.23.36.27,1.06.4,2.09.4h1.09v.77h-10.9v-.77h.74c.97,0,1.65-.12,2.02-.37.38-.25.61-.63.71-1.15.1-.52.15-1.73.15-3.64v-11.17c0-1.81-.05-2.98-.15-3.51-.1-.53-.32-.89-.67-1.09-.35-.2-1.1-.3-2.25-.3h-.39v-.77l3.26-.17c2.17-.1,3.9-.15,5.17-.15,2.17,0,3.94.2,5.3.6,1.36.4,2.46,1.06,3.3,1.98.84.92,1.26,2.01,1.26,3.29,0,1.49-.55,2.76-1.65,3.81s-2.71,1.71-4.84,1.96c.95.46,2.48,2.12,4.6,4.97,1.72,2.32,3.08,3.84,4.06,4.55.99.72,2.15,1.1,3.49,1.14v.77ZM178.22,51.88c.84-.02,1.71-.06,2.6-.1.9-.04,1.67-.17,2.33-.37.66-.2,1.2-.5,1.6-.88.41-.39.73-.89.97-1.52s.35-1.4.35-2.32c0-1.6-.4-2.88-1.2-3.85-.8-.96-2.54-1.44-5.23-1.44-.41,0-.89.02-1.43.07v10.41Z"/>
  <path class="st0" d="M216.13,56.55h.81l-.49,7.09h-18.86v-.77h.47c1.13,0,1.86-.15,2.19-.45.33-.3.54-.69.63-1.15.09-.46.13-1.65.13-3.55v-11.17c0-1.74-.05-2.88-.14-3.43-.1-.55-.31-.93-.65-1.15-.34-.22-1.06-.33-2.16-.33v-.77h16.27l.54,5.68h-.79c-.36-1.59-.8-2.72-1.32-3.38-.52-.67-1.14-1.09-1.86-1.26-.72-.17-1.87-.26-3.46-.26h-3.16v9.56h2.42c1.11,0,1.88-.09,2.33-.28.44-.19.73-.48.87-.87s.21-1.14.21-2.26h.79v7.79h-.79c0-1.27-.11-2.11-.32-2.54-.21-.43-.52-.71-.93-.84s-1.1-.19-2.07-.19h-2.5v5.39c0,2.7.17,4.29.52,4.76.35.48,1.28.71,2.81.71h1.7c1.2,0,2.18-.15,2.96-.46.77-.31,1.51-.94,2.21-1.9.7-.96,1.25-2.28,1.65-3.95Z"/>
  <path class="st0" d="M234.43,59.7l8.3-18.84h6.99v.77h-.84c-1.12,0-1.85.09-2.2.28-.35.18-.58.53-.7,1.03-.12.5-.18,1.7-.18,3.59v11.17c0,1.79.04,2.96.13,3.52.09.55.32.97.68,1.23.36.27,1.06.4,2.09.4h1.01v.77h-10.88v-.77h.81c.96,0,1.63-.12,2.01-.37.38-.25.62-.63.72-1.15.11-.52.16-1.73.16-3.64v-14.49l-9.02,20.42h-.79l-9.09-20.42v13.33c0,1.83.06,3.07.17,3.73s.46,1.24,1.04,1.74c.58.5,1.4.78,2.45.85v.77h-8.15v-.77c.97-.06,1.77-.32,2.38-.8.61-.48.98-1.06,1.12-1.76.13-.69.2-1.98.2-3.86v-9.91c0-1.81-.05-2.98-.16-3.51-.11-.53-.33-.89-.67-1.09-.34-.2-1.09-.3-2.24-.3h-.62v-.77h6.94l8.35,18.84Z"/>
  <path class="st0" d="M252.06,41.63v-.77h10.41v.77h-.49c-1.12,0-1.85.09-2.2.28-.35.18-.58.53-.7,1.03-.12.5-.18,1.7-.18,3.59v11.17c0,1.79.04,2.96.13,3.52.08.55.31.97.67,1.23.36.27,1.06.4,2.09.4h.67v.77h-10.41v-.77h.67c.97,0,1.65-.12,2.02-.37.38-.25.61-.63.71-1.15.1-.52.15-1.73.15-3.64v-11.17c0-1.81-.05-2.98-.15-3.51-.1-.53-.33-.89-.67-1.09-.35-.2-1.1-.3-2.25-.3h-.49Z"/>
  <path class="st0" d="M282.28,40.86h7.61v.77c-1.01.07-1.76.29-2.26.68-.5.39-.8.82-.91,1.3-.11.48-.17,1.42-.17,2.8v7.58c0,1.94-.08,3.37-.23,4.32-.15.94-.59,1.86-1.31,2.77-.72.91-1.74,1.63-3.05,2.17-1.31.54-2.82.81-4.54.81-2.03,0-3.74-.34-5.15-1.03-1.4-.69-2.41-1.58-3.01-2.67s-.9-2.55-.9-4.39l.02-2.33v-7.09c0-1.81-.05-2.98-.16-3.51-.11-.53-.33-.89-.67-1.09-.34-.2-1.09-.3-2.24-.3h-.52v-.77h10.4v.77h-.45c-1.12,0-1.85.09-2.2.28-.35.18-.58.53-.7,1.03-.12.5-.18,1.7-.18,3.59v7.17c0,2.48.12,4.25.34,5.29.23,1.04.88,1.95,1.94,2.73,1.06.78,2.48,1.17,4.25,1.17,1.39,0,2.65-.26,3.79-.78,1.14-.52,1.98-1.17,2.54-1.95.55-.78.89-1.58,1.02-2.4.12-.82.18-2.12.18-3.89v-7.76c0-1.29-.07-2.19-.22-2.7-.15-.51-.46-.92-.94-1.23-.48-.3-1.24-.49-2.28-.55v-.77Z"/>
  <path class="st0" d="M307.44,59.7l8.3-18.84h6.99v.77h-.84c-1.12,0-1.85.09-2.2.28-.35.18-.58.53-.7,1.03-.12.5-.18,1.7-.18,3.59v11.17c0,1.79.04,2.96.13,3.52.09.55.32.97.68,1.23.36.27,1.06.4,2.09.4h1.01v.77h-10.88v-.77h.81c.96,0,1.63-.12,2.01-.37.38-.25.62-.63.72-1.15.11-.52.16-1.73.16-3.64v-14.49l-9.02,20.42h-.79l-9.09-20.42v13.33c0,1.83.06,3.07.17,3.73s.46,1.24,1.04,1.74c.58.5,1.4.78,2.45.85v.77h-8.15v-.77c.97-.06,1.77-.32,2.38-.8.61-.48.98-1.06,1.12-1.76.13-.69.2-1.98.2-3.86v-9.91c0-1.81-.05-2.98-.16-3.51-.11-.53-.33-.89-.67-1.09-.34-.2-1.09-.3-2.24-.3h-.62v-.77h6.94l8.35,18.84Z"/>
  <path class="st0" d="M152.41,80.67h-.24v-6.76c0-.49-.01-.81-.04-.96s-.09-.25-.2-.32-.3-.1-.57-.1v-.28c.24,0,.53-.03.88-.09.34-.06.57-.12.7-.17h.13v4c.29-.26.58-.45.88-.58s.6-.19.9-.19c.73,0,1.32.25,1.79.76s.7,1.15.7,1.94-.24,1.45-.72,1.97c-.48.53-1.1.79-1.86.79-.37,0-.7-.08-.98-.23-.28-.16-.52-.39-.71-.7-.27.27-.48.58-.65.93ZM153.06,76.35v1.98c0,.51.03.88.1,1.1s.23.44.49.64c.26.21.56.31.91.31.53,0,.95-.22,1.27-.65s.47-1.06.47-1.88c0-.75-.15-1.32-.44-1.72s-.69-.59-1.17-.59c-.28,0-.55.07-.82.2s-.54.34-.8.61ZM160.95,79.51l1.17-2.81c.17-.41.25-.64.25-.68,0-.21-.23-.31-.68-.32v-.28h1.78v.28c-.28.01-.48.09-.6.22s-.29.43-.47.88l-2.25,5.43c-.21.52-.4.87-.57,1.06-.16.19-.35.28-.54.28-.27,0-.4-.12-.4-.36,0-.28.21-.52.64-.71.25-.11.42-.21.5-.28s.17-.22.25-.43l.48-1.2-1.9-4.07c-.17-.36-.31-.58-.42-.68s-.3-.14-.57-.14v-.28h2.32v.28c-.41.01-.61.1-.61.25,0,.06.08.26.24.6l1.39,2.95ZM174.6,77.33h.27v2.93h-.27c-.07-.33-.21-.63-.4-.88-.74.83-1.68,1.25-2.82,1.25-1.21,0-2.2-.38-2.96-1.15-.77-.76-1.15-1.78-1.15-3.03,0-.83.18-1.6.53-2.33.35-.73.85-1.27,1.48-1.62.63-.35,1.33-.53,2.08-.53.62,0,1.19.13,1.7.39s.89.54,1.14.85c.18-.35.28-.71.32-1.09h.27l.07,3.17h-.27c-.18-1.13-.56-1.91-1.13-2.35-.57-.44-1.21-.66-1.93-.66-.88,0-1.57.36-2.09,1.07s-.77,1.73-.77,3.05c0,1.25.28,2.21.84,2.88s1.26,1,2.1,1c.45,0,.91-.11,1.38-.33.47-.22.84-.59,1.11-1.11.27-.52.43-1.02.48-1.51ZM181.37,77.39h-3.18l-.22.53c-.32.77-.48,1.27-.48,1.5,0,.25.09.44.26.57s.39.19.66.19v.28h-2.48v-.28c.37-.06.65-.19.83-.39s.4-.63.65-1.29c.02-.06.12-.3.3-.72l2.43-5.8h.24l2.79,6.64.38.88c.09.2.2.35.35.47s.36.18.66.21v.28h-3.29v-.28c.4,0,.68-.03.82-.09s.21-.18.21-.35c0-.09-.09-.36-.28-.81l-.64-1.55ZM181.27,77.11l-1.48-3.56-1.47,3.56h2.95ZM185.53,80.38v-2.69h.31c.35,1.75,1.18,2.63,2.48,2.63.59,0,1.04-.17,1.37-.5.32-.34.48-.71.48-1.13s-.14-.77-.43-1.05c-.28-.28-.8-.58-1.55-.9-.67-.29-1.18-.54-1.52-.76-.34-.22-.61-.5-.8-.84-.19-.35-.29-.71-.29-1.1,0-.6.21-1.09.62-1.49.41-.4.94-.6,1.57-.6.35,0,.69.06,1,.17s.63.35.96.72c.19-.23.3-.47.32-.73h.27v2.19h-.27c-.16-.64-.43-1.14-.83-1.5-.4-.37-.86-.55-1.38-.55s-.86.13-1.09.4c-.23.27-.35.56-.35.88,0,.39.15.71.44.98.29.27.81.58,1.56.91.72.32,1.24.58,1.57.77.33.2.59.47.79.81s.3.74.3,1.2c0,.72-.24,1.3-.72,1.75-.48.45-1.11.67-1.91.67-.92,0-1.68-.35-2.29-1.05-.14.19-.24.46-.3.81h-.31ZM197.09,77.39h-3.18l-.22.53c-.32.77-.48,1.27-.48,1.5,0,.25.09.44.26.57s.39.19.66.19v.28h-2.48v-.28c.37-.06.65-.19.83-.39s.4-.63.65-1.29c.02-.06.12-.3.3-.72l2.43-5.8h.24l2.79,6.64.38.88c.09.2.2.35.35.47s.36.18.66.21v.28h-3.29v-.28c.4,0,.68-.03.82-.09s.21-.18.21-.35c0-.09-.09-.36-.28-.81l-.64-1.55ZM196.99,77.11l-1.48-3.56-1.47,3.56h2.95ZM203.65,72.18l1.38-.07c1.15-.06,1.92-.09,2.32-.09,1.24,0,2.21.19,2.9.57.69.38,1.21.89,1.55,1.54.34.65.51,1.39.51,2.24,0,.61-.09,1.17-.28,1.68s-.44.93-.76,1.26-.7.59-1.12.76c-.43.17-.83.28-1.21.33s-.92.06-1.62.06h-3.71v-.28h.35c.36,0,.61-.05.74-.14s.23-.23.27-.42.06-.64.06-1.33v-4.03c0-.67-.02-1.1-.06-1.29s-.12-.33-.25-.4-.4-.11-.82-.11h-.25v-.28ZM206.22,72.35v5.59c0,.83.02,1.36.05,1.6s.12.41.28.5.48.14.98.14c.73,0,1.33-.1,1.79-.3.47-.2.86-.59,1.17-1.18.31-.59.47-1.33.47-2.24,0-.71-.09-1.34-.27-1.89-.18-.55-.44-1.01-.79-1.35-.34-.35-.72-.58-1.13-.71s-.95-.19-1.6-.19c-.31,0-.63.01-.95.03ZM217.91,77.39h-3.18l-.22.53c-.32.77-.48,1.27-.48,1.5,0,.25.09.44.26.57s.39.19.66.19v.28h-2.48v-.28c.37-.06.65-.19.83-.39s.4-.63.65-1.29c.02-.06.12-.3.3-.72l2.43-5.8h.24l2.79,6.64.38.88c.09.2.2.35.35.47s.36.18.66.21v.28h-3.29v-.28c.4,0,.68-.03.82-.09s.21-.18.21-.35c0-.09-.09-.36-.28-.81l-.64-1.55ZM217.81,77.11l-1.48-3.56-1.47,3.56h2.95ZM227.08,76.54v1.76c0,.66.02,1.09.05,1.29s.11.35.25.45.39.15.76.15h.28v.28h-3.83v-.28h.22c.36,0,.61-.05.74-.14s.23-.23.26-.42.06-.64.06-1.33v-4.1c0-.67-.02-1.1-.06-1.29s-.12-.33-.25-.4c-.13-.07-.4-.11-.83-.11h-.15v-.28l1.05-.04c.84-.03,1.49-.04,1.96-.04.86,0,1.53.07,1.99.2.47.14.85.38,1.15.72s.45.78.45,1.31c0,.46-.1.86-.31,1.21s-.5.61-.88.8-1.05.27-2.01.27h-.92ZM227.08,76.23h.6c.48,0,.87-.05,1.17-.14.3-.1.54-.3.74-.61s.3-.69.3-1.14c0-.69-.17-1.2-.51-1.52-.34-.32-.89-.48-1.65-.48-.28,0-.49,0-.64.02v3.87ZM232.11,76.23c0-1.29.43-2.33,1.29-3.11.86-.78,1.94-1.17,3.23-1.17s2.39.39,3.27,1.16c.87.77,1.31,1.83,1.31,3.16s-.42,2.34-1.25,3.14c-.84.8-1.94,1.2-3.3,1.2s-2.42-.4-3.27-1.2c-.85-.8-1.28-1.86-1.28-3.19ZM233.52,76.28c0,1.34.27,2.35.8,3.03.54.67,1.34,1.01,2.41,1.01.94,0,1.69-.34,2.23-1.01s.82-1.68.82-3.02-.27-2.29-.81-2.99c-.54-.69-1.32-1.04-2.34-1.04s-1.78.34-2.32,1.01c-.54.68-.8,1.68-.8,3ZM250.83,80.47h-2.25c-.4-.28-1.01-1.01-1.83-2.2-.26-.38-.54-.74-.82-1.09s-.48-.56-.59-.64-.27-.11-.5-.11h-.33v1.86c0,.66.02,1.09.05,1.29s.11.35.25.45.39.15.77.15h.4v.28h-4v-.28h.27c.36,0,.61-.05.74-.14s.23-.23.26-.42.06-.64.06-1.33v-4.1c0-.67-.02-1.1-.06-1.29-.04-.19-.12-.33-.25-.4-.13-.07-.4-.11-.83-.11h-.14v-.28l1.2-.06c.8-.04,1.43-.06,1.9-.06.8,0,1.45.07,1.95.22.5.15.9.39,1.21.73s.46.74.46,1.21c0,.55-.2,1.01-.6,1.4s-.99.63-1.78.72c.35.17.91.78,1.69,1.83.63.85,1.13,1.41,1.49,1.67.36.26.79.4,1.28.42v.28ZM244.51,76.15c.31,0,.63-.02.96-.04.33-.02.61-.06.86-.14.24-.07.44-.18.59-.32.15-.14.27-.33.35-.56s.13-.51.13-.85c0-.59-.15-1.06-.44-1.41s-.93-.53-1.92-.53c-.15,0-.33,0-.52.02v3.82ZM250.93,74.12h-.28l.04-2.01h8.11l.04,2.01h-.27c-.09-.55-.22-.95-.39-1.19-.16-.24-.34-.39-.53-.45s-.51-.08-.97-.08h-1.34v5.9c0,.65.02,1.08.05,1.29s.11.36.25.46.39.15.76.15h.41v.28h-4.17v-.28h.43c.36,0,.61-.05.74-.14s.23-.23.27-.42.06-.64.06-1.33v-5.9h-1.24c-.54,0-.9.03-1.09.08s-.36.21-.52.47-.29.65-.37,1.18ZM266.55,77.87h.3l-.18,2.6h-6.92v-.28h.17c.42,0,.68-.06.8-.17s.2-.25.23-.42c.03-.17.05-.61.05-1.3v-4.1c0-.64-.02-1.06-.05-1.26s-.12-.34-.24-.42-.39-.12-.79-.12v-.28h5.98l.2,2.08h-.29c-.13-.58-.29-1-.48-1.24s-.42-.4-.68-.46-.69-.1-1.27-.1h-1.16v3.51h.89c.41,0,.69-.03.85-.1s.27-.18.32-.32.08-.42.08-.83h.29v2.86h-.29c0-.46-.04-.78-.12-.93s-.19-.26-.34-.31-.4-.07-.76-.07h-.92v1.98c0,.99.06,1.57.19,1.75s.47.26,1.03.26h.62c.44,0,.8-.06,1.09-.17.28-.11.55-.35.81-.7.26-.35.46-.84.61-1.45ZM274.96,78.01l-.06,2.46h-7.1v-.28h.25c.36,0,.61-.05.74-.14s.23-.23.27-.42.06-.64.06-1.33v-4.1c0-.67-.02-1.1-.06-1.29s-.12-.33-.25-.4-.4-.11-.82-.11h-.18v-.28h4.01v.28h-.37c-.41,0-.68.03-.81.1s-.21.19-.26.38-.06.62-.06,1.32v4.38c0,.6.02.98.05,1.13s.12.27.27.35.46.13.94.13h.64c.51,0,.9-.05,1.14-.14s.49-.29.71-.59c.22-.3.43-.79.61-1.45h.29ZM281.08,77.39h-3.18l-.22.53c-.32.77-.48,1.27-.48,1.5,0,.25.09.44.26.57s.39.19.66.19v.28h-2.48v-.28c.37-.06.65-.19.83-.39s.4-.63.65-1.29c.02-.06.12-.3.3-.72l2.43-5.8h.24l2.79,6.64.38.88c.09.2.2.35.35.47s.36.18.66.21v.28h-3.29v-.28c.4,0,.68-.03.82-.09s.21-.18.21-.35c0-.09-.09-.36-.28-.81l-.64-1.55ZM280.98,77.11l-1.48-3.56-1.47,3.56h2.95ZM135.5,9.11c-2.83-3.28-6.46-5.56-10.88-6.85-4.43-1.29-10.74-1.93-18.93-1.93-4.45,0-10.65.14-18.61.41l-6.34.22-8.51-.44c-7.58-.35-13.59-.53-18.04-.53-7.58,0-13.74.7-18.48,2.11-4.74,1.41-8.58,3.71-11.51,6.91-2.93,3.2-4.39,7.03-4.39,11.48,0,5.19,1.91,9.63,5.74,13.3,3.83,3.67,9.45,5.96,16.87,6.85-3.32,1.6-8.67,7.38-16.05,17.34-6.01,8.08-10.74,13.37-14.17,15.87-3.44,2.5-7.5,3.83-12.18,3.98v2.69h21.38c3.79-2.66,9.59-9.61,17.4-20.85,2.5-3.59,5.1-7.04,7.79-10.34,2.69-3.3,4.55-5.31,5.56-6.03,1.02-.72,2.6-1.08,4.74-1.08h3.16v17.63c0,6.25-.15,10.34-.44,12.27-.29,1.93-1.07,3.37-2.34,4.31-1.27.94-3.7,1.41-7.29,1.41h-3.81v2.69h38.01v-.09h29.3v-2.69h-2.63c-3.55,0-5.97-.47-7.26-1.4-1.29-.94-2.08-2.37-2.37-4.3-.29-1.93-.44-6.02-.44-12.26v-16.68h8.72c9.09,0,15.44-.86,19.05-2.58,3.61-1.72,6.38-4.23,8.31-7.55,1.93-3.32,2.9-7.14,2.9-11.47,0-4.99-1.41-9.13-4.24-12.41ZM60.04,39.54c-2.93-.08-5.95-.19-9.08-.35-3.12-.16-5.84-.59-8.14-1.29-2.3-.7-4.17-1.73-5.59-3.08-1.42-1.35-2.55-3.11-3.37-5.3-.82-2.19-1.23-4.88-1.23-8.08,0-5.58,1.4-10.05,4.19-13.41,2.79-3.36,8.87-5.04,18.24-5.04,1.45,0,3.1.08,4.98.23v36.32ZM89.3,59.79c0,6.63-.18,10.86-.53,12.67-.35,1.81-1.18,3.15-2.49,4.01-1.31.86-3.66,1.29-7.05,1.29h-.11c-2.09-.17-3.62-.56-4.59-1.2-1.31-.86-2.14-2.2-2.49-4.01-.35-1.82-.53-6.04-.53-12.68V20.91c0-6.33.18-10.41.53-12.24.35-1.84,1.13-3.1,2.34-3.81,1.05-.61,3.16-.95,6.32-1.03,2.83.11,4.75.44,5.73,1.01,1.21.7,1.99,1.97,2.34,3.8.35,1.83.53,5.91.53,12.23v38.91ZM124.53,33.04c-1.87,2.93-4.21,4.85-7.02,5.76-2.81.92-6.5,1.38-11.06,1.38h-5.68V3.43c1.4-.16,3.43-.23,6.09-.23,7.22,0,12.44,1.53,15.65,4.59,3.22,3.06,4.83,7.87,4.83,14.42,0,4.29-.94,7.9-2.81,10.83Z"/>
</svg>