<?xml version="1.0" encoding="UTF-8"?>
<svg id="Layer_1" xmlns="http://www.w3.org/2000/svg" version="1.1" viewBox="0 0 207.81 245.77">
  <!-- Generator: Adobe Illustrator 30.6.0, SVG Export Plug-In . SVG Version: 2.1.4 Build 109)  -->
  <defs>
    <style>
      .st0 {
        fill: #fff;
      }
    </style>
  </defs>
  <path class="st0" d="M105.53,197.38c-.89.49-2.22.34-3.48.19l-19.69-24.41-.22,24.54-3.52-.02v-31.13c1.19-.15,2.21-.17,3.33.16l19.77,24.58.28-24.82,3.49.06.05,30.86Z"/>
  <path class="st0" d="M193.3,197.98c-10.27,1.1-18.18-6.36-18.17-16.03.01-9.52,8.16-16.96,18.1-15.85,8.46.94,14.53,7.52,14.58,15.74.05,8.11-5.7,15.2-14.5,16.14M187.85,169.85c-7.27,2.05-10.43,9.47-8.53,16,1.99,6.84,9.1,10.47,15.92,8.46,6.61-1.95,10.29-8.86,8.62-15.44-1.76-6.91-8.68-11.1-16-9.02"/>
  <path class="st0" d="M110.84,151.09l-7.48-11.75h-8.56s-.1,11.85-.1,11.85l-3.47-.04.05-30.81h13.21c5.01.02,8.87,3.35,9.54,7.74.75,4.92-1.43,9.32-6.82,10.78l7.76,12.23h-4.13ZM105.68,135.85c3.56-.04,5.14-3.69,4.86-6.61-.27-2.85-2.29-5.5-5.5-5.52l-10.24-.05v12.3s10.88-.12,10.88-.12Z"/>
  <path class="st0" d="M62.99,137.12l-14.15.1-.11,10.7,17.51.1-.08,3.18h-20.87s.19-30.88.19-30.88l20.75.04v3.27s-17.4.06-17.4.06l.13,10.1,14.03.08c.16,1.09.21,1.85,0,3.25"/>
  <path class="st0" d="M200.63,143.31l-15.77-.03-3.55,7.82c-1.19.18-2.25.23-3.65.03l13.25-30.55c.86-.47,2.8-.51,3.57,0l13.21,30.51-3.77.09-3.29-7.87ZM199.25,140.11l-6.6-15.04-6.51,14.93,13.11.1Z"/>
  <path class="st0" d="M150.81,139.93l-8.49.04-.06,11.22h-3.52s.02-30.87.02-30.87l12.84.05c4.88.02,9,3.61,9.27,8.45.77,6.1-3.72,11.07-10.06,11.11M152.11,136.38c3.6-.07,5.46-3.64,5.33-6.72-.12-2.8-2.16-5.9-5.35-5.91l-9.72-.06v12.89s9.74-.19,9.74-.19Z"/>
  <path class="st0" d="M14.98,185.78l-10.27.25v11.65s-3.52.05-3.52.05v-31.28s12.96.14,12.96.14c6.48.07,10.5,6.26,8.94,12.53-.89,3.6-4.04,6.56-8.1,6.66M14.53,182.53c3.77-.07,5.53-3.71,5.27-6.78-.26-3.19-2.7-5.88-6.18-5.91l-9-.09.1,12.96,9.8-.18Z"/>
  <path class="st0" d="M16.32,150.42c-5.63,2.31-12.59,1.28-16.31-3.5-.16-1.01,1.47-2.31,2.19-2.62,3.08,3.76,8.14,5.21,12.6,3.23,1.96-.87,2.86-2.89,2.78-4.74-.09-1.98-1.5-3.51-3.55-4.19l-7.98-2.67c-3.06-1.02-5.04-3.62-5.31-6.36-.33-3.29.89-6.45,3.96-8.15,4.93-2.74,11.33-1.68,15.41,2.19-.44,1.27-1.23,2.04-2.39,2.53-3.06-3.01-7.54-3.91-11.19-1.78-1.59.93-2.28,2.57-2.28,4.15,0,1.74,1.12,3.33,3.05,4l7.98,2.74c3.5,1.2,5.72,3.65,5.88,6.94.17,3.39-1.16,6.73-4.84,8.24"/>
  <path class="st0" d="M94.96,244.22c-5.6,3.13-12.68,1.37-16.03-3.77-.57-.87,1.89-2.35,2.64-1.45,2.76,3.32,7.17,4.94,11.25,2.88,3.9-1.98,5.47-7.47,2.63-10.98-3.17-3.92-8.99-3.84-12.6-.71-.62.53-1.13.49-1.54.33-.74-.28-1.06-.87-.96-1.74l1.89-15.24,15.66.04v2.92s-13.06.23-13.06.23l-1.05,9.39c4.95-1.96,10.24-1.61,13.74,2.18,4.21,4.57,3.17,12.7-2.59,15.92"/>
  <path class="st0" d="M117.24,245.13c-.88.48-2.53.3-3.76.13l7.98-11.54c-6.4,1.54-12.02-1.02-13.82-6.66-1.71-5.36,1.16-11.46,6.9-13.26,4.57-1.44,9.37-.27,12.38,3.44,2.73,3.36,3.33,8.87.57,12.91l-10.25,14.98ZM124.52,228.6c2.2-2.51,2.06-5.65.73-8.35-.99-2.01-3.31-3.64-6.12-3.98-3.8-.46-7.33,1.79-8.4,5.29-.98,3.23.07,7.01,3.45,8.8,3.22,1.71,7.78,1.15,10.34-1.76"/>
  <polygon class="st0" points="143.24 197.72 139.75 197.68 139.63 169.83 129.65 169.71 129.66 166.49 153.53 166.5 153.56 169.71 143.32 170.11 143.24 197.72"/>
  <path class="st0" d="M51.58,197.52c-1.28.32-2.3.19-3.48.11v-31.07s3.51-.07,3.51-.07l-.03,31.02Z"/>
  <path class="st0" d="M59.4,228.77l-.17,1.43-58.86.1c-.18-.61-.18-1,0-1.64l59.03.11Z"/>
  <path class="st0" d="M206.56,228.69c.09.4.1.89.07,1.58l-57.77.04c-.69,0-1.06-.47-1.05-.82,0-.35.36-.8,1.05-.8h57.7Z"/>
  <path class="st0" d="M206.62,230.28c.03-.69.03-1.18-.07-1.58.61-.03.68.37.69.8,0,.46-.1.84-.62.79"/>
  <path class="st0" d="M59.22,230.2l.17-1.43c.37.53.18,1.01-.17,1.43"/>
  <polygon class="st0" points="138.76 49.89 138.74 99.76 142.23 99.76 142.26 49.89 138.76 49.89"/>
  <polygon class="st0" points="103.91 93.53 62.59 93.51 62.59 99.7 103.91 99.76 103.91 93.53"/>
  <polygon class="st0" points="119.39 .01 66.1 0 66.1 0 62.6 0 62.56 0 62.56 3.48 62.6 3.48 62.59 93.62 66.07 93.62 66.1 3.49 119.39 3.51 119.39 .01"/>
</svg>